<svg aria-hidden="true" style="width:0;height:0;position:absolute;overflow:hidden" xmlns="http://www.w3.org/2000/svg"><defs><symbol id="icon-image" viewBox="0 0 32 32"><path d="m29.996 4 .004.004v23.993l-.004.004H2.003l-.004-.004V4.004L2.003 4h27.993zM30 2H2C.9 2 0 2.9 0 4v24c0 1.1.9 2 2 2h28c1.1 0 2-.9 2-2V4c0-1.1-.9-2-2-2z"/><path d="M26 9a3 3 0 1 1-6 0 3 3 0 0 1 6 0zM28 26H4v-4l7-12 8 10h2l7-6z"/></symbol><symbol id="icon-search" viewBox="0 0 32 32"><path d="m31.008 27.231-7.58-6.447c-.784-.705-1.622-1.029-2.299-.998a11.954 11.954 0 0 0 2.87-7.787c0-6.627-5.373-12-12-12s-12 5.373-12 12 5.373 12 12 12c2.972 0 5.691-1.081 7.787-2.87-.031.677.293 1.515.998 2.299l6.447 7.58c1.104 1.226 2.907 1.33 4.007.23s.997-2.903-.23-4.007zM12 20a8 8 0 1 1 0-16 8 8 0 0 1 0 16z"/></symbol><symbol id="icon-point-up" viewBox="0 0 32 32"><path d="M30 19v-5a3.004 3.004 0 0 0-4.472-2.614 3 3 0 0 0-4.528-.62 2.987 2.987 0 0 0-3-.595V3c0-1.654-1.346-3-3-3s-3 1.346-3 3v12.334l-5.501-2.932A3.004 3.004 0 0 0 2 15.001c0 .824.327 1.592.922 2.163l.023.022 7.474 6.815H9a1 1 0 0 0-1 1v6a1 1 0 0 0 1 1h20a1 1 0 0 0 1-1v-6a1 1 0 0 0-1-1h-1.382l2.276-4.553c.069-.139.106-.292.106-.447zm-2 8a1 1 0 1 1-2 0 1 1 0 0 1 2 0zm0-8.236L25.382 24H13.387l-9.088-8.286a1.002 1.002 0 0 1 1.18-1.592c.017.01.033.02.051.029l7 3.732a1 1 0 0 0 1.47-.882v-14c0-.551.449-1 1-1s1 .449 1 1v10a1 1 0 0 0 2 0c0-.551.449-1 1-1s1 .449 1 1a1 1 0 0 0 2 0c0-.551.449-1 1-1s1 .449 1 1v1a1 1 0 0 0 2 0c0-.551.449-1 1-1s1 .449 1 1v4.764z"/></symbol></defs></svg>