<svg aria-hidden="true" style="position: absolute; width: 0; height: 0; overflow: hidden;" version="1.1"
    xmlns="http://www.w3.org/2000/svg"
    xmlns:xlink="http://www.w3.org/1999/xlink">
    <defs>
        <symbol id="icon-image" viewBox="0 0 32 32">
<path d="M29.996 4c0.001 0.001 0.003 0.002 0.004 0.004v23.993c-0.001 0.001-0.002 0.003-0.004 0.004h-27.993c-0.001-0.001-0.003-0.002-0.004-0.004v-23.993c0.001-0.001 0.002-0.003 0.004-0.004h27.993zM30 2h-28c-1.1 0-2 0.9-2 2v24c0 1.1 0.9 2 2 2h28c1.1 0 2-0.9 2-2v-24c0-1.1-0.9-2-2-2v0z"></path>
<path d="M26 9c0 1.657-1.343 3-3 3s-3-1.343-3-3 1.343-3 3-3 3 1.343 3 3z"></path>
<path d="M28 26h-24v-4l7-12 8 10h2l7-6z"></path>
</symbol>
<symbol id="icon-search" viewBox="0 0 32 32">
<path d="M31.008 27.231l-7.58-6.447c-0.784-0.705-1.622-1.029-2.299-0.998 1.789-2.096 2.87-4.815 2.87-7.787 0-6.627-5.373-12-12-12s-12 5.373-12 12 5.373 12 12 12c2.972 0 5.691-1.081 7.787-2.87-0.031 0.677 0.293 1.515 0.998 2.299l6.447 7.58c1.104 1.226 2.907 1.33 4.007 0.23s0.997-2.903-0.23-4.007zM12 20c-4.418 0-8-3.582-8-8s3.582-8 8-8 8 3.582 8 8-3.582 8-8 8z"></path>
</symbol>
<symbol id="icon-point-up" viewBox="0 0 32 32">
<path d="M30 19v-5c0-1.654-1.346-3-3-3-0.535 0-1.037 0.14-1.472 0.386-0.534-0.833-1.467-1.386-2.528-1.386-0.768 0-1.469 0.29-2 0.766-0.531-0.476-1.232-0.766-2-0.766-0.35 0-0.687 0.060-1 0.171v-7.171c0-1.654-1.346-3-3-3s-3 1.346-3 3v12.334l-5.501-2.932c-0.454-0.262-0.973-0.401-1.499-0.401-1.654 0-3 1.346-3 3 0 0.824 0.327 1.592 0.922 2.163 0.008 0.007 0.015 0.015 0.023 0.022l7.474 6.815h-1.419c-0.552 0-1 0.448-1 1v6c0 0.552 0.448 1 1 1h20c0.552 0 1-0.448 1-1v-6c0-0.552-0.448-1-1-1h-1.382l2.276-4.553c0.069-0.139 0.106-0.292 0.106-0.447zM28 27c0 0.552-0.448 1-1 1s-1-0.448-1-1 0.448-1 1-1 1 0.448 1 1zM28 18.764l-2.618 5.236h-11.995l-9.088-8.286c-0.193-0.19-0.299-0.443-0.299-0.714 0-0.551 0.449-1 1-1 0.171 0 0.332 0.041 0.479 0.122 0.017 0.010 0.033 0.020 0.051 0.029l7 3.732c0.31 0.165 0.684 0.156 0.985-0.025s0.485-0.506 0.485-0.857v-14c0-0.551 0.449-1 1-1s1 0.449 1 1v10c0 0.552 0.448 1 1 1s1-0.448 1-1c0-0.551 0.449-1 1-1s1 0.449 1 1c0 0.552 0.448 1 1 1s1-0.448 1-1c0-0.551 0.449-1 1-1s1 0.449 1 1v1c0 0.552 0.448 1 1 1s1-0.448 1-1c0-0.551 0.449-1 1-1s1 0.449 1 1v4.764z"></path>
</symbol>
    </defs>
</svg>
